<?xml version="1.0" encoding="utf-8"?>
<svg viewBox="0 0 80 80" xmlns="http://www.w3.org/2000/svg">
  <defs>
    <style>.cls-1{font-size:76.48px;font-family:TimesNewRomanPS-BoldMT, Times New Roman;font-weight:700;letter-spacing:0.1em;}.cls-1,.cls-3,.cls-4{fill:#1a7c96;}.cls-2{letter-spacing:0.03em;}.cls-4{font-size:70.83px;font-family:HelveticaNeue-Thin, Helvetica Neue;font-weight:200;letter-spacing:0.1em;}.cls-5{letter-spacing:0.08em;}</style>
  </defs>
  <g id="Layer_2" data-name="Layer 2" transform="matrix(1.048355, 0, 0, 1.048081, 0, -0.073365)">
    <g id="Layer_1-2" data-name="Layer 1">
      <path class="cls-3" d="M67,9.58a37,37,0,0,1,9.3,14.94V.07H49.57A35.23,35.23,0,0,1,67,9.58Z"/>
      <path class="cls-3" d="M9.47,9.61a35.84,35.84,0,0,1,17-9.54H0V24.66A37.06,37.06,0,0,1,9.47,9.61Z"/>
      <path class="cls-3" d="M69.88,62.94A35.54,35.54,0,0,1,48.64,76.38H76.31V50.77A39.71,39.71,0,0,1,69.88,62.94Z"/>
      <path class="cls-3" d="M6.82,63.61A38.69,38.69,0,0,1,0,51v25.4H27.87A35.79,35.79,0,0,1,6.82,63.61Z"/>
      <path class="cls-3" d="M47.58,44.29a14.81,14.81,0,0,1,5.69,3.25c2.31,2.08,4.91,3.84,7.38,5.73l4.63,3.56,4.78-5.7c-7.66-2.93-14.55-7-22.52-8.5.27-.45.6-1,.86-.91a29.18,29.18,0,0,1,5.29.85c1.69.53,3.24,1.53,4.88,2.23C62,46.28,65.52,47.69,69,49.14a26.56,26.56,0,0,0,3.08-6.72c-8-.84-15.67-3-23.74-2.31.13-.49.3-1.09.55-1.12a25.79,25.79,0,0,1,5.44-.53c2.75.21,5.47.83,8.21,1.23s5.47.73,8.26,1.1c.6-2.42,1.35-4.69,1.13-7.27-7.85,1.22-15.81,1.23-23.68,4.09.24-.71.27-1.33.54-1.48,1.74-.91,3.46-1.93,5.53-1.93A20.65,20.65,0,0,0,56.83,34c2.4-.29,4.81-.62,7.21-.93l6.5-.85c-.22-2.46-.44-4.85-.67-7.41-7.49,3.31-15.21,5.36-21.72,9.95-.69-.72-.51-1.19.06-1.69a16.51,16.51,0,0,1,5.56-3.26c4.3-1.5,8.47-3.38,12.69-5.12,1.38-.57,1.37-.59.91-2-.11-.37-.18-.74-.32-1.1-.56-1.42-1.14-2.84-1.78-4.43C58.93,22.28,52,26.22,46.75,32.37c-.26-.45-.58-1-.42-1.25a26.09,26.09,0,0,1,3.34-4c1.5-1.35,3.3-2.37,4.93-3.59,2.84-2.13,5.66-4.31,8.51-6.49a23.27,23.27,0,0,0-4.31-6c-4.7,6.45-10.36,12.05-13.67,19.29-1-.33-1.15-.81-.78-1.57s.49-1.29.74-1.94c1-2.73,3.4-4.47,5-6.77,2.09-3,4.39-5.79,6.75-8.87L51.23,6.41c-1.68,3.88-3.34,7.45-4.77,11.11s-2.65,7.45-4,11.24c-.64-.06-.86-.47-.78-1.24a14.59,14.59,0,0,1,1.62-6.15,49.24,49.24,0,0,0,2.6-6.1C47,12.66,48.08,10,49.17,7.39a24.66,24.66,0,0,0-6.65-3c-.59,4.05-1.29,7.94-1.72,11.86S40.18,24,39.89,28c-1,.2-1-.63-1.16-1.33a16.55,16.55,0,0,1,.08-6.27C39.61,16.24,40,12,40.58,7.83c.09-.75.13-1.5.21-2.39C38.4,5,36.1,4.61,33.61,4.18c.49,4.25.83,8.18,1.42,12.07S36.46,24,37.21,27.89c-.6.29-1,0-1.35-.73a15.43,15.43,0,0,1-1.65-6.25c-.15-3.1-.73-6.19-1.14-9.28-.25-1.85-.51-3.69-.8-5.76l-7.38.69c3.33,7.51,5.34,15.24,10,21.74-.77.59-1.24.56-1.68-.07a12.58,12.58,0,0,0-1.34-1.58c-1.35-1.38-1.58-3.27-2.27-4.95-1.51-3.64-3-7.28-4.51-10.94-.85-2.13-.82-2.21-3-1.52-1.59.51-3.12,1.2-4.85,1.88,5.08,6.39,9.06,13.29,15.25,18.44l-1,.77a15.73,15.73,0,0,1-5.29-4.91,71,71,0,0,0-5.06-6.71l-4.11-5.39a22.26,22.26,0,0,0-6,4.29C17.51,22.33,23.12,28,30.41,31.5c-.41.35-.87.74-1.22.66-.9-.2-1.74-.66-2.63-.93-1.95-.61-3.07-2.32-4.61-3.45-3.58-2.65-7.08-5.41-10.65-8.16a21.59,21.59,0,0,0-4.59,5.74c7.4,2.88,14.26,6.86,22.1,8.2-.06.94-.38,1.26-1.26,1.16a16,16,0,0,1-6.14-1.61,80.06,80.06,0,0,0-7.73-3.29L7.43,27.25a21.35,21.35,0,0,0-3,6.7c7.91.88,15.58,2.94,23.64,2.38-.17.49-.38,1.08-.68,1.13a19.84,19.84,0,0,1-4.82.53c-2.72-.23-5.4-.85-8.11-1.24-2.91-.42-5.83-.77-9-1.19-.42,2.39-.83,4.71-1.29,7.29,8.09-1.22,16.05-1.14,23.5-4,.51.9.27,1.3-.48,1.68a16.65,16.65,0,0,1-6.34,1.67c-4.14.31-8.25,1.05-12.37,1.55-2.59.32-2.63.29-2.44,2.88.12,1.56.36,3.11.58,4.85,7.48-3.32,15.19-5.31,21.64-9.94.71.82.49,1.26-.12,1.78a17.5,17.5,0,0,1-5.49,3.19C18,48.23,13.4,50.29,8.55,52.28l2.58,7c6.39-5.17,13.34-9.12,18.47-15.35l.76,1c-.49.75-1,1.48-1.47,2.25-1.16,2-3.3,2.79-5,4.13-3.25,2.58-6.58,5.06-9.85,7.62-.24.19-.46.79-.34,1,1.17,1.86,2.42,3.68,3.78,5.72C22.31,58.93,28,53.33,31.33,46c.93.37,1,.82.75,1.61a15.76,15.76,0,0,1-3.14,5.5c-3.22,3.84-6.15,7.93-9.31,12.06L25.3,70c2.94-7.71,7-14.59,8.3-22.43,1,0,1.19.53,1.15,1.27a12.56,12.56,0,0,1-1.52,5.95,38.79,38.79,0,0,0-2.36,5.53l-3.65,8.8L34,72.27c.86-8.16,3-15.85,2.34-23.94.49.16,1.1.36,1.14.65A24.84,24.84,0,0,1,38,54.32c-.22,2.78-.83,5.53-1.24,8.31S36,68,35.59,70.92l7.33,1.28c-1.2-8.1-1.28-16-4-23.59l1.19-.27c.95,2.11,2.31,4,2.06,6.53a7.6,7.6,0,0,0,.14,1.77c.32,2.47.66,4.94,1,7.41.28,2.09.56,4.17.83,6.22,2.65.31,6-.08,7.25-.81-1.47-3.65-3-7.27-4.38-11s-3.4-7.07-5.29-10.64c.5-.06,1.12-.13,1.33.12a29.11,29.11,0,0,1,2.83,3.83A23.8,23.8,0,0,1,47,54.9c1.09,2.73,2.24,5.44,3.36,8.16.65,1.55,1.29,3.1,2,4.81l7-2.57C54.17,58.92,50.21,52,44,46.82l1.14-.9a36.33,36.33,0,0,1,4.17,3.65c1.8,2.13,3.29,4.53,5,6.77s3.41,4.44,5.27,6.85l6.08-4.26C59,54.07,53.35,48.39,46.06,45.05,46.46,44.22,46.86,44.07,47.58,44.29Zm-9.43.38a6.45,6.45,0,1,1,6.46-6.45A6.44,6.44,0,0,1,38.15,44.67Z"/>
    </g>
  </g>
</svg>